<svg width="29" height="29" viewBox="0 0 29 29" fill="none" xmlns="http://www.w3.org/2000/svg">
<path d="M27.3234 0.500001H20.1734C18.639 0.500001 17.139 1.06191 15.8484 2.12198L14.3234 3.36934L12.7984 2.12198C11.509 1.06212 10.0073 0.498955 8.47336 0.500001H1.32336C0.770239 0.500001 0.323364 1.06988 0.323364 1.77526V24.4112C0.323364 25.1166 0.770239 25.6865 1.32336 25.6865H8.47336C10.0077 25.6865 11.5077 26.2484 12.7984 27.3084L14.1859 28.4482C14.2265 28.4801 14.2734 28.5 14.3202 28.5C14.3671 28.5 14.414 28.4841 14.4546 28.4482L15.8421 27.3084C17.1359 26.2484 18.639 25.6865 20.1734 25.6865H27.3234C27.8765 25.6865 28.3234 25.1166 28.3234 24.4112V1.77526C28.3234 1.06988 27.8765 0.500001 27.3234 0.500001ZM8.47336 22.8171H2.57336V3.36934H8.47336C9.57961 3.36934 10.6546 3.77185 11.5827 4.53302L13.1077 5.78039L13.3234 5.95972V24.3713C11.8359 23.3511 10.1734 22.8171 8.47336 22.8171ZM26.0734 22.8171H20.1734C18.4734 22.8171 16.8109 23.3511 15.3234 24.3713V5.95972L15.539 5.78039L17.064 4.53302C17.9921 3.77185 19.0671 3.36934 20.1734 3.36934H26.0734V22.8171ZM10.7265 8.4704H4.92024C4.79836 8.4704 4.69836 8.60589 4.69836 8.76929V10.5626C4.69836 10.726 4.79836 10.8615 4.92024 10.8615H10.7234C10.8452 10.8615 10.9452 10.726 10.9452 10.5626V8.76929C10.9484 8.60589 10.8484 8.4704 10.7265 8.4704ZM17.6984 8.76929V10.5626C17.6984 10.726 17.7984 10.8615 17.9202 10.8615H23.7234C23.8452 10.8615 23.9452 10.726 23.9452 10.5626V8.76929C23.9452 8.60589 23.8452 8.4704 23.7234 8.4704H17.9202C17.7984 8.4704 17.6984 8.60589 17.6984 8.76929ZM10.7265 14.0497H4.92024C4.79836 14.0497 4.69836 14.1852 4.69836 14.3486V16.1419C4.69836 16.3053 4.79836 16.4408 4.92024 16.4408H10.7234C10.8452 16.4408 10.9452 16.3053 10.9452 16.1419V14.3486C10.9484 14.1852 10.8484 14.0497 10.7265 14.0497ZM23.7265 14.0497H17.9202C17.7984 14.0497 17.6984 14.1852 17.6984 14.3486V16.1419C17.6984 16.3053 17.7984 16.4408 17.9202 16.4408H23.7234C23.8452 16.4408 23.9452 16.3053 23.9452 16.1419V14.3486C23.9484 14.1852 23.8484 14.0497 23.7265 14.0497Z" fill="white"/>
</svg>
