<svg width="14" height="14" viewBox="0 0 14 14" fill="none" xmlns="http://www.w3.org/2000/svg">
<g clip-path="url(#clip0_83_622)">
<path d="M7 0.875C3.61758 0.875 0.875 3.61758 0.875 7C0.875 10.3824 3.61758 13.125 7 13.125C10.3824 13.125 13.125 10.3824 13.125 7C13.125 3.61758 10.3824 0.875 7 0.875ZM7.30488 9.96953L7.30762 10.4029C7.30762 10.4631 7.2584 10.5137 7.19824 10.5137H6.80996C6.7498 10.5137 6.70059 10.4645 6.70059 10.4043V9.975C5.48652 9.88477 4.91504 9.19297 4.85352 8.44102C4.84805 8.37676 4.89863 8.32207 4.96289 8.32207H5.59453C5.64785 8.32207 5.69434 8.36035 5.70254 8.4123C5.77227 8.8457 6.10996 9.16973 6.71563 9.25039V7.29941L6.37793 7.21328C5.66289 7.04238 4.98203 6.59668 4.98203 5.67246C4.98203 4.67578 5.73945 4.13984 6.70742 4.04551V3.59434C6.70742 3.53418 6.75664 3.48496 6.8168 3.48496H7.20098C7.26113 3.48496 7.31035 3.53418 7.31035 3.59434V4.04141C8.24688 4.13574 8.94961 4.68262 9.03164 5.53437C9.03848 5.59863 8.98789 5.65469 8.92227 5.65469H8.3084C8.25371 5.65469 8.20723 5.61367 8.20039 5.56035C8.1457 5.16113 7.82578 4.83574 7.30488 4.76465V6.60078L7.65215 6.68145C8.53809 6.9002 9.14102 7.32402 9.14102 8.27285C9.14102 9.30234 8.37539 9.87656 7.30488 9.96953ZM5.83242 5.60957C5.83242 5.95684 6.04707 6.22617 6.50918 6.39297C6.57344 6.41895 6.6377 6.43945 6.71426 6.46133V4.76602C6.20977 4.83027 5.83242 5.11328 5.83242 5.60957ZM7.42519 7.45801C7.38691 7.4498 7.34863 7.44023 7.30488 7.42793V9.25586C7.8873 9.20391 8.28926 8.88398 8.28926 8.34805C8.28926 7.92832 8.07187 7.65488 7.42519 7.45801Z" fill="black" fill-opacity="0.85"/>
</g>
<defs>
<clipPath id="clip0_83_622">
<rect width="14" height="14" fill="white"/>
</clipPath>
</defs>
</svg>
