<svg width="36" height="36" viewBox="0 0 36 36" fill="none" xmlns="http://www.w3.org/2000/svg">
<path d="M30.375 5.0625H19.6875C19.3781 5.0625 19.125 5.31562 19.125 5.625V16.3125C19.125 16.6219 19.3781 16.875 19.6875 16.875H30.375C30.6844 16.875 30.9375 16.6219 30.9375 16.3125V5.625C30.9375 5.31562 30.6844 5.0625 30.375 5.0625ZM28.5469 14.4844H21.5156V7.45312H28.5469V14.4844ZM16.3125 19.125H5.625C5.31562 19.125 5.0625 19.3781 5.0625 19.6875V30.375C5.0625 30.6844 5.31562 30.9375 5.625 30.9375H16.3125C16.6219 30.9375 16.875 30.6844 16.875 30.375V19.6875C16.875 19.3781 16.6219 19.125 16.3125 19.125ZM14.4844 28.5469H7.45312V21.5156H14.4844V28.5469ZM16.3125 5.0625H5.625C5.31562 5.0625 5.0625 5.31562 5.0625 5.625V16.3125C5.0625 16.6219 5.31562 16.875 5.625 16.875H16.3125C16.6219 16.875 16.875 16.6219 16.875 16.3125V5.625C16.875 5.31562 16.6219 5.0625 16.3125 5.0625ZM14.4844 14.4844H7.45312V7.45312H14.4844V14.4844ZM30.375 19.125H19.6875C19.3781 19.125 19.125 19.3781 19.125 19.6875V30.375C19.125 30.6844 19.3781 30.9375 19.6875 30.9375H30.375C30.6844 30.9375 30.9375 30.6844 30.9375 30.375V19.6875C30.9375 19.3781 30.6844 19.125 30.375 19.125ZM28.5469 28.5469H21.5156V21.5156H28.5469V28.5469Z" fill="#534341"/>
<path d="M7.45312 7.45312H14.4844V14.4844H7.45312V7.45312ZM21.5156 7.45312H28.5469V14.4844H21.5156V7.45312ZM7.45312 21.5156H14.4844V28.5469H7.45312V21.5156ZM21.5156 21.5156H28.5469V28.5469H21.5156V21.5156Z" fill="#534341" fill-opacity="0.19"/>
</svg>
