<svg width="29" height="29" viewBox="0 0 29 29" fill="none" xmlns="http://www.w3.org/2000/svg">
<path d="M27.1341 13.1715C26.362 11.8041 25.2395 10.5767 23.837 9.56625L22.6796 8.73067C22.6403 8.70307 22.593 8.68349 22.5418 8.67364C22.4907 8.66379 22.4372 8.66397 22.3862 8.67416C22.3351 8.68436 22.288 8.70426 22.2491 8.73212C22.2101 8.75998 22.1804 8.79494 22.1625 8.83394L21.6455 10.0013C21.3233 10.7336 20.7307 11.4815 19.8915 12.217C19.8358 12.2639 19.7722 12.2764 19.7285 12.2796C19.6847 12.2827 19.6171 12.2764 19.5574 12.2326C19.5018 12.1951 19.4739 12.1387 19.4779 12.0824C19.625 10.1984 18.9091 8.07346 17.3421 5.76073C16.0455 3.83919 14.2438 2.34014 11.9927 1.29487L10.3501 0.534388C10.1353 0.434242 9.86085 0.565683 9.87279 0.762845L9.96029 2.26503C10.0199 3.29152 9.86881 4.19908 9.51085 4.95331C9.07335 5.87652 8.44495 6.73402 7.64154 7.50388C7.08243 8.03892 6.44872 8.52286 5.75234 8.9466C4.07514 9.9611 2.71137 11.261 1.76314 12.749C0.817237 14.25 0.324518 15.9025 0.323364 17.5779C0.323364 19.055 0.69325 20.4852 1.42507 21.8341C2.13169 23.1327 3.15144 24.3113 4.42791 25.3047C5.71654 26.3062 7.21199 27.0948 8.87847 27.6425C10.6046 28.2121 12.4341 28.5 14.3233 28.5C16.2126 28.5 18.0421 28.2121 19.7682 27.6456C21.4306 27.1012 22.9423 26.3071 24.2188 25.3079C25.5074 24.3064 26.5177 23.136 27.2216 21.8372C27.9523 20.4921 28.3272 19.0439 28.3233 17.581C28.3233 16.0538 27.9256 14.5704 27.1341 13.1715ZM22.3177 23.79C20.1819 25.455 17.3461 26.3688 14.3233 26.3688C11.3006 26.3688 8.46483 25.455 6.32904 23.79C4.2012 22.1282 3.02791 19.925 3.02791 17.581C3.02791 16.2197 3.41768 14.9146 4.18529 13.7004C4.93302 12.5143 6.04665 11.4534 7.39892 10.6366C8.26135 10.1177 9.04357 9.52107 9.7296 8.85898C10.7239 7.90447 11.5035 6.84042 12.0444 5.69814C12.2663 5.22695 12.4275 4.73942 12.5256 4.2429C13.4841 4.93766 14.2876 5.77637 14.9597 6.75905C16.2881 8.71815 16.9006 10.4613 16.7813 11.9447C16.7528 12.2941 16.8253 12.644 16.9934 12.9681C17.1615 13.2923 17.4208 13.5822 17.7518 13.8162C18.0386 14.0201 18.3741 14.1771 18.7387 14.2781C19.1033 14.3791 19.4897 14.422 19.8756 14.4045C20.6591 14.3732 21.379 14.101 21.904 13.6409C22.433 13.1746 22.8904 12.6989 23.2722 12.2139C23.829 12.774 24.2944 13.3843 24.6642 14.0415C25.2966 15.1619 25.6188 16.3542 25.6188 17.581C25.6188 19.925 24.4455 22.1314 22.3177 23.79Z" fill="#FCFCFC"/>
</svg>
