<svg width="14" height="14" viewBox="0 0 14 14" fill="none" xmlns="http://www.w3.org/2000/svg">
<g clip-path="url(#clip0_83_232)">
<path d="M10.2971 8.69721C9.41902 7.93314 8.27214 7.47064 7.01589 7.47064C5.75964 7.47064 4.61277 7.93314 3.73308 8.69877C3.70879 8.72067 3.69392 8.75113 3.69159 8.78375C3.68926 8.81638 3.69965 8.84864 3.72058 8.87377L4.28308 9.54408C4.32839 9.59721 4.40808 9.60346 4.4612 9.55814C5.14245 8.95814 6.0362 8.59564 7.01589 8.59564C7.99558 8.59564 8.88933 8.95814 9.57058 9.55658C9.6237 9.60189 9.70339 9.59564 9.7487 9.54252L10.3112 8.87221C10.355 8.82064 10.3487 8.74252 10.2971 8.69721ZM12.1315 6.50814C10.7456 5.35345 8.96277 4.65814 7.01589 4.65814C5.06902 4.65814 3.2862 5.35345 1.8987 6.50814C1.87332 6.52955 1.85743 6.56013 1.85451 6.5932C1.85158 6.62628 1.86185 6.65917 1.88308 6.68471L2.44558 7.35502C2.48933 7.40814 2.56902 7.41439 2.62058 7.37064C3.81277 6.38002 5.34558 5.78314 7.01589 5.78314C8.6862 5.78314 10.219 6.38002 11.4096 7.37064C11.4628 7.41439 11.5409 7.40814 11.5846 7.35502L12.1471 6.68471C12.1909 6.63158 12.1846 6.55189 12.1315 6.50814ZM13.955 4.33627C12.0581 2.78002 9.62995 1.84564 6.98464 1.84564C4.35652 1.84564 1.94402 2.76752 0.0518297 4.30502C0.0388298 4.31546 0.028051 4.3284 0.0201282 4.34308C0.0122054 4.35775 0.00729884 4.37386 0.00569721 4.39046C0.00409558 4.40706 0.00583136 4.42381 0.0108023 4.43973C0.0157733 4.45564 0.023879 4.4704 0.0346421 4.48314L0.597142 5.15346C0.640892 5.20502 0.719017 5.21283 0.77058 5.17064C2.46902 3.79408 4.62995 2.97064 6.98464 2.97064C9.35652 2.97064 11.5315 3.80658 13.2346 5.20033C13.2878 5.24408 13.3659 5.23627 13.4096 5.18314L13.9721 4.51283C14.0175 4.45971 14.0096 4.38002 13.955 4.33627ZM6.00027 11.1581C6.00027 11.4234 6.10562 11.6777 6.29316 11.8652C6.4807 12.0528 6.73505 12.1581 7.00027 12.1581C7.26548 12.1581 7.51984 12.0528 7.70737 11.8652C7.89491 11.6777 8.00027 11.4234 8.00027 11.1581C8.00027 10.8929 7.89491 10.6386 7.70737 10.451C7.51984 10.2635 7.26548 10.1581 7.00027 10.1581C6.73505 10.1581 6.4807 10.2635 6.29316 10.451C6.10562 10.6386 6.00027 10.8929 6.00027 11.1581Z" fill="black" fill-opacity="0.85"/>
</g>
<defs>
<clipPath id="clip0_83_232">
<rect width="14" height="14" fill="white"/>
</clipPath>
</defs>
</svg>
